<svg xmlns="http://www.w3.org/2000/svg" data-name="Layer 1" width="850.5" height="740.8">
  <path d="M767 386a354 354 0 0 1-99 245l-12 12-19 17a354 354 0 0 1-217 81h-8c-64 0-144-34-216-81l-18-12-8-6a730 730 0 0 1-79-64 514 514 0 0 1-46-49c-56-69-68-131 11-143l28-5 36-8 45-13 13-4c66-23 110-53 140-86q8-8 14-17a236 236 0 0 0 18-27 255 255 0 0 0 18-41l1-1c24-69 16-132 43-154 112-91 252 39 318 192l9 23 4 11 8 27 3 11a431 431 0 0 1 13 92Z" fill="#f2f2f2"/>
  <path d="M420 741h-8c-64 0-144-34-216-81l-18-12 5-31 157-21 78 60Z" fill="#2f2e41"/>
  <path d="M427 180h-22a3 3 0 0 0-3 3v22a3 3 0 0 0 3 3h22a3 3 0 0 0 3-3v-22a3 3 0 0 0-3-3Z" fill="#fff"/>
  <path d="M427 218h-22a3 3 0 0 0-3 3v22a3 3 0 0 0 3 2h22a3 3 0 0 0 3-2v-22a3 3 0 0 0-3-3ZM427 256h-22a3 3 0 0 0-3 3v22a3 3 0 0 0 3 2h22a3 3 0 0 0 3-2v-22a3 3 0 0 0-3-3ZM430 296a3 3 0 0 0-3-2h-22a3 3 0 0 0-3 2v23a3 3 0 0 0 3 2h22a3 3 0 0 0 3-2v-23ZM428 332a3 3 0 0 0-1 0h-22a3 3 0 0 0-3 2v23a3 3 0 0 0 3 2h22a3 3 0 0 0 3-2v-23a3 3 0 0 0-2-2ZM474 180h-22a3 3 0 0 0-3 3v22a3 3 0 0 0 3 3h22a3 3 0 0 0 2-3v-22a3 3 0 0 0-2-3Z" fill="#e6e6e6"/>
  <path d="M474 218h-22a3 3 0 0 0-3 3v22a3 3 0 0 0 3 2h22a3 3 0 0 0 2-2v-22a3 3 0 0 0-2-3ZM474 256h-22a3 3 0 0 0-3 3v22a3 3 0 0 0 3 2h22a3 3 0 0 0 2-2v-22a3 3 0 0 0-2-3ZM474 294h-22a3 3 0 0 0-3 2v23a3 3 0 0 0 3 2h22a3 3 0 0 0 2-2v-23a3 3 0 0 0-2-2Z" fill="#f9a826"/>
  <path d="M474 332h-22a3 3 0 0 0-3 2v23a3 3 0 0 0 3 2h22a3 3 0 0 0 2-2v-23a3 3 0 0 0-2-2Z" fill="#e6e6e6"/>
  <path d="M521 180h-23a3 3 0 0 0-2 3v22a3 3 0 0 0 2 3h23a3 3 0 0 0 2-3v-22a3 3 0 0 0-2-3ZM521 218h-23a3 3 0 0 0-2 3v22a3 3 0 0 0 2 2h23a3 3 0 0 0 2-2v-22a3 3 0 0 0-2-3Z" fill="#f9a826"/>
  <path d="M521 256h-23a3 3 0 0 0-2 3v22a3 3 0 0 0 2 2h23a3 3 0 0 0 2-2v-22a3 3 0 0 0-2-3Z" fill="#e6e6e6"/>
  <path d="M521 294h-23a3 3 0 0 0-2 2v23a3 3 0 0 0 2 2h23a3 3 0 0 0 2-2v-23a3 3 0 0 0-2-2ZM521 332h-23a3 3 0 0 0-2 2v23a3 3 0 0 0 2 2h23a3 3 0 0 0 2-2v-23a3 3 0 0 0-2-2ZM567 180h-22a3 3 0 0 0-2 3v22a3 3 0 0 0 2 3h22a3 3 0 0 0 3-3v-22a3 3 0 0 0-3-3Z" fill="#f9a826"/>
  <path d="M567 218h-22a3 3 0 0 0-2 3v22a3 3 0 0 0 2 2h22a3 3 0 0 0 3-2v-22a3 3 0 0 0-3-3ZM567 256h-22a3 3 0 0 0-2 3v22a3 3 0 0 0 2 2h22a3 3 0 0 0 3-2v-22a3 3 0 0 0-3-3Z" fill="#fff"/>
  <path d="M567 294h-22a3 3 0 0 0-2 2v23a3 3 0 0 0 2 2h22a3 3 0 0 0 3-2v-23a3 3 0 0 0-3-2Z" fill="#e6e6e6"/>
  <path d="M567 332h-22a3 3 0 0 0-2 2v23a3 3 0 0 0 2 2h22a3 3 0 0 0 3-2v-23a3 3 0 0 0-3-2Z" fill="#f9a826"/>
  <path d="M614 180h-22a3 3 0 0 0-3 3v22a3 3 0 0 0 3 3h22a3 3 0 0 0 3-3v-22a3 3 0 0 0-3-3ZM614 218h-22a3 3 0 0 0-3 3v22a3 3 0 0 0 3 2h22a3 3 0 0 0 3-2v-22a3 3 0 0 0-3-3ZM614 256h-22a3 3 0 0 0-3 3v22a3 3 0 0 0 3 2h22a3 3 0 0 0 3-2v-22a3 3 0 0 0-3-3Z" fill="#fff"/>
  <path d="M614 294h-22a3 3 0 0 0-3 2v23a3 3 0 0 0 3 2h22a3 3 0 0 0 3-2v-23a3 3 0 0 0-3-2Z" fill="#f9a826"/>
  <path d="M614 332h-22a3 3 0 0 0-3 2v23a3 3 0 0 0 3 2h22a3 3 0 0 0 3-2v-23a3 3 0 0 0-3-2Z" fill="#e6e6e6"/>
  <path d="M661 180h-22a3 3 0 0 0-3 3v22a3 3 0 0 0 3 3h22a3 3 0 0 0 2-3v-22a3 3 0 0 0-2-3ZM661 218h-22a3 3 0 0 0-3 3v22a3 3 0 0 0 3 2h22a3 3 0 0 0 2-2v-22a3 3 0 0 0-2-3Z" fill="#fff"/>
  <path d="M661 256h-22a3 3 0 0 0-3 3v22a3 3 0 0 0 3 2h22a3 3 0 0 0 2-2v-22a3 3 0 0 0-2-3Z" fill="#f9a826"/>
  <path d="M661 294h-22a3 3 0 0 0-3 2v23a3 3 0 0 0 3 2h22a3 3 0 0 0 2-2v-23a3 3 0 0 0-2-2Z" fill="#e6e6e6"/>
  <path d="M661 332h-22a3 3 0 0 0-3 2v23a3 3 0 0 0 3 2h22a3 3 0 0 0 2-2v-23a3 3 0 0 0-2-2Z" fill="#fff"/>
  <path d="M708 180h-23a3 3 0 0 0-2 3v22a3 3 0 0 0 2 3h23a3 3 0 0 0 2-3v-22a3 3 0 0 0-2-3ZM708 218h-23a3 3 0 0 0-2 3v22a3 3 0 0 0 2 2h23a3 3 0 0 0 2-2v-22a3 3 0 0 0-2-3Z" fill="#f9a826"/>
  <path d="M708 256h-23a3 3 0 0 0-2 3v22a3 3 0 0 0 2 2h23a3 3 0 0 0 2-2v-22a3 3 0 0 0-2-3Z" fill="#e6e6e6"/>
  <path d="M708 294h-23a3 3 0 0 0-2 2v23a3 3 0 0 0 2 2h23a3 3 0 0 0 2-2v-23a3 3 0 0 0-2-2Z" fill="#fff"/>
  <path d="M708 332h-23a3 3 0 0 0-2 2v23a3 3 0 0 0 2 2h23a3 3 0 0 0 2-2v-23a3 3 0 0 0-2-2ZM754 180h-22a3 3 0 0 0-2 3v22a3 3 0 0 0 2 3h22a3 3 0 0 0 3-3v-22a3 3 0 0 0-3-3ZM754 218h-22a3 3 0 0 0-2 3v22a3 3 0 0 0 2 2h22a3 3 0 0 0 3-2v-22a3 3 0 0 0-3-3Z" fill="#f9a826"/>
  <path d="M754 256h-22a3 3 0 0 0-2 3v22a3 3 0 0 0 2 2h22a3 3 0 0 0 3-2v-22a3 3 0 0 0-3-3Z" fill="#e6e6e6"/>
  <path d="M754 294h-22a3 3 0 0 0-2 2v23a3 3 0 0 0 2 2h22a3 3 0 0 0 3-2v-23a3 3 0 0 0-3-2ZM754 332h-22a3 3 0 0 0-2 2v23a3 3 0 0 0 2 2h22a3 3 0 0 0 3-2v-23a3 3 0 0 0-3-2Z" fill="#f9a826"/>
  <path d="M801 180h-22a3 3 0 0 0-3 3v22a3 3 0 0 0 3 3h22a3 3 0 0 0 3-3v-22a3 3 0 0 0-3-3Z" fill="#e6e6e6"/>
  <path d="M801 218h-22a3 3 0 0 0-3 3v22a3 3 0 0 0 3 2h22a3 3 0 0 0 3-2v-22a3 3 0 0 0-3-3ZM801 256h-22a3 3 0 0 0-3 3v22a3 3 0 0 0 3 2h22a3 3 0 0 0 3-2v-22a3 3 0 0 0-3-3ZM801 294h-22a3 3 0 0 0-3 2v23a3 3 0 0 0 3 2h22a3 3 0 0 0 3-2v-23a3 3 0 0 0-3-2Z" fill="#f9a826"/>
  <path d="M801 332h-22a3 3 0 0 0-3 2v23a3 3 0 0 0 3 2h22a3 3 0 0 0 3-2v-23a3 3 0 0 0-3-2ZM848 180h-22a3 3 0 0 0-3 3v22a3 3 0 0 0 3 3h22a3 3 0 0 0 3-3v-22a3 3 0 0 0-3-3ZM848 218h-22a3 3 0 0 0-3 3v22a3 3 0 0 0 3 2h22a3 3 0 0 0 3-2v-22a3 3 0 0 0-3-3Z" fill="#e6e6e6"/>
  <path d="M848 256h-22a3 3 0 0 0-3 3v22a3 3 0 0 0 3 2h22a3 3 0 0 0 3-2v-22a3 3 0 0 0-3-3Z" fill="#f9a826"/>
  <path d="M848 294h-22a3 3 0 0 0-3 2v23a3 3 0 0 0 3 2h22a3 3 0 0 0 3-2v-23a3 3 0 0 0-3-2ZM848 332h-22a3 3 0 0 0-3 2v23a3 3 0 0 0 3 2h22a3 3 0 0 0 3-2v-23a3 3 0 0 0-3-2Z" fill="#e6e6e6"/>
  <path fill="#2f2e41" d="M336 660h-1 1z"/>
  <circle data-name="ab6171fa-7d69-4734-b81c-8dff60f9761b" cx="282.8" cy="176.7" r="68.3" fill="#ffb6b6"/>
  <path data-name="bf427902-b9bf-4946-b5d7-5c1c7e04535e" d="M343 127s18-35-22-38c0 0-33-30-67-5 0 0-19 0-29 21 0 0-15-6-18 9 0 0-11 31 0 59s14 31 14 31-18-58 25-61 91-30 95 4 9 42 9 42 34-48-7-62Z" fill="#2f2e41"/>
  <path d="m460 345-1 1-2 13-17 91-1 5-2 11-3 15-7 34-2 10v5l-2 10-1 3-5 35-4 30 14 13-8 8-5 31H196l-26-18 2-13s6-24 3-27l-8-8 7-16 1-3-1-34v-1l-1-11v-4l-2-44-1-14-1-12v-5l-2-54-2-36-2-31 6-2 66-22 27-36 56 1h28l46 43 10 5 8 3 19 9 20 10 10 5Z" fill="#cacaca"/>
  <path d="M269 558a30 30 0 0 1-41-23l-106-15 37-42 95 21a30 30 0 0 1 15 59Z" fill="#ffb6b6"/>
  <path d="M222 481a14 14 0 0 0-8-5l-44-9-5-1a19 19 0 0 1-12-9 19 19 0 0 1-2-7 19 19 0 0 1 0-8l16-46 9-29a42 42 0 0 0 2-11 43 43 0 0 0-9-29 43 43 0 0 0-49-14 43 43 0 0 0-26 29l-10 39-22 80a58 58 0 0 0 49 72l63 8 29 3a13 13 0 0 0 15-10 5 5 0 0 0 0-1v-4l6-37a13 13 0 0 0-2-11Z" fill="#cacaca"/>
  <path d="M337 559a30 30 0 0 0 37-28l103-30-42-36-92 34a30 30 0 0 0-6 60Z" fill="#ffb6b6"/>
  <path d="m529 434-49-113a43 43 0 0 0-21-22 43 43 0 0 0-8-3h-2a42 42 0 0 0-19 0 43 43 0 0 0-28 22 43 43 0 0 0 0 39v1l35 70a19 19 0 0 1-10 26l-3 1-44 16a13 13 0 0 0-8 16v1l12 39 1 1a7 7 0 0 0 0 1 13 13 0 0 0 16 7l24-6 4-1 62-16a58 58 0 0 0 38-79Z" fill="#cacaca"/>
  <path d="M45 529a514 514 0 0 0 46 49h452a16 16 0 0 1 16 16l1 115a355 355 0 0 0 77-49l19-17 12-12a356 356 0 0 0 69-102Z" fill="#3f3d56"/>
  <path d="m668 631-12 12h-96v-12Z" fill="#fff"/>
  <path d="M459 256a6 6 0 0 0-5-3H126a6 6 0 0 0-6 6v196h339V259a5 5 0 0 0 0-3Z" fill="#3f3d56"/>
  <path d="M120 450v24a8 8 0 0 0 8 7h125v48h-2a1 1 0 0 0-1 1v3a1 1 0 0 0 1 1h78a1 1 0 0 0 1-1v-3a1 1 0 0 0-1-1h-2v-48h125a8 8 0 0 0 8-7v-24Z" fill="#3f3d56"/>
  <circle cx="285.9" cy="348.7" r="31.3" fill="#f9a826"/>
  <path d="M366 173h-5c0-38-38-63-75-63a82 82 0 0 0-17 2l-18 5c-25 7-47 21-47 56a79 79 0 0 0 2 20l-5 1a84 84 0 0 1-2-21c0-30 12-51 33-63 12-7 25-11 41-13a97 97 0 0 1 20-1c43 4 73 37 73 77Z" fill="#f9a826"/>
  <path d="m374 176-2-15a16 16 0 0 0-5-9 16 16 0 0 0-13-4h-3a7 7 0 0 0-5 3 7 7 0 0 0-1 4l5 34a7 7 0 0 0 5 6 6 6 0 0 0 1 0 6 6 0 0 0 1 0l3-1a16 16 0 0 0 11-6l1-1a17 17 0 0 0 2-11Z" fill="#f9a826"/>
  <path d="M349 149a6 6 0 0 0-3 2 7 7 0 0 0-1 4l5 34a7 7 0 0 0 5 6Z" fill="#fff"/>
  <path d="m374 176-2-15a16 16 0 0 0-5-9l5 33a6 6 0 0 0 0 2 17 17 0 0 0 2-11Z" fill="#3f3d56"/>
  <ellipse cx="532.2" cy="258.9" rx="2.5" ry="7" transform="rotate(-8 -144 1513)" fill="#3f3d56"/>
  <ellipse cx="529.2" cy="240.9" rx="2.5" ry="7" transform="rotate(-8 -147 1495)" fill="#3f3d56"/>
  <ellipse cx="548.2" cy="247.9" rx="2.5" ry="7" transform="rotate(-8 -128 1502)" fill="#3f3d56"/>
  <path d="M286 110a82 82 0 0 0-17 2l-18 5c-10-1-17-3-19-7 12-7 25-11 41-13a97 97 0 0 1 20-1 6 6 0 0 1 3 4c0 4-4 7-10 10Z" fill="#3f3d56"/>
  <path d="m222 208-8-32a6 6 0 0 0-5-5 7 7 0 0 0-1 0 6 6 0 0 0-1 0l-3 1a15 15 0 0 0-11 18l3 14a16 16 0 0 0 6 9 14 14 0 0 0 1 1 15 15 0 0 0 11 2l3-1a6 6 0 0 0 2-1 6 6 0 0 0 3-6Z" fill="#f9a826"/>
  <ellipse cx="378.6" cy="274.5" rx="2.5" ry="7" transform="rotate(-14 -44 971)" fill="#3f3d56"/>
  <ellipse cx="368.6" cy="277.5" rx="2.5" ry="7" transform="rotate(-14 -54 974)" fill="#3f3d56"/>
  <path d="m222 208-8-32a7 7 0 0 0-5-5l11 43a7 7 0 0 0 2-6Z" fill="#fff"/>
  <path d="M194 184a6 6 0 0 0-1-3 15 15 0 0 0 0 9l3 14a16 16 0 0 0 6 9Z" fill="#3f3d56"/>
</svg>
